# xmcd CD database file
#
# Track frame offsets:
#	182
#	15545
#	32267
#	45762
#	64505
#	74110
#	92610
#	109092
#	120625
#	135137
#	170862
#	210542
#	227797
#	241187
#	259340
#	276740
#
# Disc length: 3797 seconds
#
# Revision: 1
# Processed by: cddbd v1.5.2PL0 Copyright (c) Steve Scherf et al.
# Submitted via: CDex 1.77
#
DISCID=da0ed310
DTITLE=Willie "The Lion" Smith - Echoes Of Spring - Paris
DYEAR=1965
DGENRE=Jazz
TTITLE0=Echoes Of Spring
TTITLE1=Relaxin'
TTITLE2=Here Comes The Band
TTITLE3=Tea For Two
TTITLE4=Carolina Shout
TTITLE5=Zig Zag
TTITLE6=That's Why They Call Me Shine
TTITLE7=Dardanella
TTITLE8=Dinah
TTITLE9=Jimmy Johnson Medley
TTITLE10=Medley No. 2
TTITLE11=Squeeze Me
TTITLE12=Polonaise
TTITLE13=Medley No. 3
TTITLE14=Tea For Two
TTITLE15=La Marseillaise
EXTD=YEAR: 1965
EXTT0=
EXTT1=
EXTT2=
EXTT3=
EXTT4=
EXTT5=
EXTT6=
EXTT7=
EXTT8=
EXTT9=
EXTT10=
EXTT11=
EXTT12=
EXTT13=
EXTT14=
EXTT15=
PLAYORDER=
